<svg xmlns="http://www.w3.org/2000/svg" xmlns:xlink="http://www.w3.org/1999/xlink" width="28" height="29" viewBox="0 0 28 29"><defs><path id="do62a" d="M760 1686.922c0 2.063-.47 4.037-1.4 5.865a13.063 13.063 0 0 1-3.384 4.187v5.143a.888.888 0 0 1-1.512.63l-3.312-3.323c-1.062.28-2.16.42-3.267.42h-2.242c-7.1 0-12.875-5.797-12.875-12.922 0-7.127 5.776-12.924 12.875-12.924h2.242c7.1 0 12.875 5.797 12.875 12.924zm-1.772 0c0-6.145-4.98-11.146-11.103-11.146h-2.242c-6.123 0-11.104 5-11.104 11.146 0 6.144 4.981 11.145 11.104 11.145h2.242c1.112 0 2.211-.166 3.266-.49a.885.885 0 0 1 .886.22l2.168 2.175v-3.433c0-.28.13-.541.353-.71a11.077 11.077 0 0 0 4.43-8.907zm-11.09.729v2.066a.887.887 0 1 1-1.772 0v-2.138a1.68 1.68 0 0 1 1.32-1.648 1.978 1.978 0 0 0 1.54-2.081 1.983 1.983 0 0 0-1.832-1.839 1.963 1.963 0 0 0-1.492.528 1.975 1.975 0 0 0-.629 1.453c0 .49-.397.89-.886.89a.888.888 0 0 1-.886-.89c0-1.04.435-2.042 1.192-2.752a3.7 3.7 0 0 1 2.823-1.003 3.765 3.765 0 0 1 3.477 3.49 3.745 3.745 0 0 1-2.855 3.924zm0 5.583a.89.89 0 0 1-.886.887.891.891 0 0 1 0-1.778.89.89 0 0 1 .886.891z"/></defs><g><g transform="translate(-732 -1674)"><use fill="#4699b9" xlink:href="#do62a"/></g></g></svg>