<svg xmlns="http://www.w3.org/2000/svg" xmlns:xlink="http://www.w3.org/1999/xlink" width="48" height="40" viewBox="0 0 48 40"><defs><path id="7qs5a" d="M1043.25 45.497c-.813 3.11-3.175 6.509-6.655 7.28a27.565 27.565 0 0 1-.972 1.55c.981-.347 1.95-.74 2.924-1.188a.915.915 0 0 1 1.07.22c.27.3.309.735.097 1.078-1.609 2.606-4.642 5.06-8.006 5.06-.166 0-.332-.007-.498-.019a29.36 29.36 0 0 1-3.147 2.522c-2.185 1.667-3.358 2.108-4.492 2.533-.706.266-1.393.525-2.344 1.106a44.228 44.228 0 0 1 2.572 2.139.697.697 0 0 1-.47 1.22.7.7 0 0 1-.469-.177c-1.16-1.033-2.088-1.785-2.86-2.353-.773.568-1.7 1.32-2.86 2.353a.705.705 0 0 1-.994-.055.697.697 0 0 1 .055-.988c1-.89 1.844-1.585 2.572-2.14-.951-.58-1.638-.839-2.344-1.105-1.135-.425-2.308-.866-4.495-2.535a29.308 29.308 0 0 1-3.145-2.52 7.109 7.109 0 0 1-.497.019c-3.365 0-6.398-2.454-8.006-5.06a.897.897 0 0 1 .097-1.078c.27-.302.7-.39 1.07-.22.974.448 1.942.84 2.924 1.188a27.74 27.74 0 0 1-.972-1.55c-3.48-.771-5.842-4.17-6.656-7.28a.9.9 0 0 1 .41-1.004.913.913 0 0 1 1.089.103c.8.714 1.612 1.374 2.452 1.991a26.875 26.875 0 0 1-.48-1.771c-1.415-.804-2.548-2.12-3.29-3.827-.681-1.57-1.006-3.43-.914-5.234a.9.9 0 0 1 .7-.836.91.91 0 0 1 1.007.43c.543.94 1.118 1.826 1.735 2.679.004-.737.036-1.452.096-2.141 0-.015 0-.03.002-.044a30.332 30.332 0 0 1 1.173-6.34.707.707 0 0 1 .875-.475.7.7 0 0 1 .476.87 29.22 29.22 0 0 0-.89 4.021 32.255 32.255 0 0 1 2.399-2.084.92.92 0 0 1 1.073-.045c.33.217.483.617.379.998-.845 3.083-2.257 5.713-4.09 7.633.045.588.115 1.192.208 1.813.512-.9 1.06-1.76 1.655-2.595a.92.92 0 0 1 1.007-.347c.375.11.639.445.655.833.093 2.174-.125 5.346-1.645 8.287.213.537.453 1.081.718 1.633.228-1.001.502-1.975.828-2.94a.916.916 0 0 1 .862-.618h.007c.387 0 .733.243.862.604 1.009 2.83 1.301 5.782.837 8.36.363.454.755.91 1.173 1.365a29.074 29.074 0 0 1-.076-3.061.917.917 0 0 1 1.651-.516c1.805 2.43 2.975 5.194 3.321 7.818 1.876 1.402 2.867 1.776 3.913 2.169.862.322 1.742.654 3.073 1.534 1.331-.88 2.21-1.212 3.073-1.534 1.046-.393 2.036-.767 3.913-2.17.345-2.623 1.516-5.387 3.32-7.817a.917.917 0 0 1 1.652.516 29.118 29.118 0 0 1-.076 3.06c.418-.453.81-.909 1.172-1.364-.464-2.578-.171-5.53.838-8.36a.915.915 0 0 1 .861-.604h.008c.39.004.737.251.861.619.326.963.6 1.938.828 2.94.266-.553.505-1.097.718-1.634-1.52-2.941-1.737-6.113-1.644-8.287a.909.909 0 0 1 .655-.833.92.92 0 0 1 1.007.347 30.208 30.208 0 0 1 1.654 2.595 25.35 25.35 0 0 0 .209-1.813c-1.834-1.92-3.246-4.55-4.09-7.633a.916.916 0 0 1 1.452-.952c.835.655 1.629 1.345 2.399 2.083a29.199 29.199 0 0 0-.89-4.021.7.7 0 0 1 .475-.87.707.707 0 0 1 .875.474 30.324 30.324 0 0 1 1.174 6.34l.001.042c.06.69.093 1.406.097 2.145a31.445 31.445 0 0 0 1.735-2.68.911.911 0 0 1 1.008-.43c.397.094.678.43.699.836.092 1.805-.233 3.664-.915 5.234-.74 1.706-1.874 3.024-3.29 3.827-.135.578-.295 1.17-.48 1.771a33.088 33.088 0 0 0 2.453-1.991.913.913 0 0 1 1.089-.103.9.9 0 0 1 .41 1.004zm-3.07-2.717c1.36-1.295 2.103-3.23 2.332-5.134a31.664 31.664 0 0 1-2.051 2.787l-.01.12a21.65 21.65 0 0 1-.086.889l-.027.229c-.013.113-.029.228-.044.343l-.03.224-.057.37c-.01.057-.017.116-.026.172zm-40.361 0c-.01-.054-.017-.11-.026-.167a28.771 28.771 0 0 1-.132-.94l-.027-.235a28.295 28.295 0 0 1-.084-.877l-.011-.128a31.547 31.547 0 0 1-2.052-2.787c.23 1.903.972 3.839 2.332 5.134zm1.76 1.655l.025.113a21.404 21.404 0 0 0 .193.763c.02.075.04.15.062.225a39.644 39.644 0 0 0 .234.79l.051.164c.53-1.42.845-3.023.923-4.706a29.98 29.98 0 0 0-1.489 2.65zm-.713-6.254v.176c.937-1.234 1.72-2.709 2.318-4.364a31.547 31.547 0 0 0-2.24 2.173l-.009.12a24.455 24.455 0 0 0-.047.812l-.009.237-.007.3-.005.24v.306zm1.562 12.776l-.074-.154a32.983 32.983 0 0 1-.256-.537 24.399 24.399 0 0 1-.139-.305c-.032-.07-.063-.144-.095-.216a23.709 23.709 0 0 1-.333-.795l-.048-.117a33.081 33.081 0 0 1-2.769-2.002c.78 1.708 2.051 3.303 3.714 4.126zm2.164 1.064l.057.099.14.237.119.197.148.24.124.194.158.245.128.193c.055.084.112.167.17.25.03.046.06.09.092.135.095-1.51-.07-3.126-.483-4.737-.265.955-.48 1.93-.653 2.947zm2.724 5.995l-.11-.12c-.087-.094-.174-.186-.258-.278l-.15-.168c-.076-.085-.152-.17-.227-.257a27.715 27.715 0 0 1-.362-.424l-.15-.18-.199-.245-.08-.098a34.251 34.251 0 0 1-3.229-1.11c1.246 1.408 2.93 2.568 4.765 2.88zm4.032 1.802c-.372-1.488-1.019-3-1.897-4.43.029.994.113 1.995.251 3.023.03.026.058.053.087.08l.207.19.175.155c.071.063.143.128.216.19a15.992 15.992 0 0 0 .406.342c.06.052.121.1.182.152.08.065.16.13.242.194l.13.104zm19.201-4.43c-.879 1.43-1.525 2.942-1.897 4.43l.138-.11c.078-.061.156-.123.232-.187.063-.052.125-.102.186-.154.076-.061.15-.124.225-.187l.18-.153.216-.192a8.17 8.17 0 0 0 .173-.153l.21-.192.085-.08c.139-1.027.222-2.028.252-3.022zm3.723-1.577l.1-.145.16-.237.132-.2c.052-.08.104-.159.154-.239l.127-.199.146-.235.12-.2.14-.236.057-.099a29.478 29.478 0 0 0-.653-2.947c-.414 1.61-.578 3.226-.483 4.737zm-.053 2.435l-.081.099-.196.243c-.05.06-.1.123-.152.182l-.207.246-.156.18c-.073.084-.147.165-.22.25l-.157.173c-.08.089-.162.177-.243.263-.042.045-.081.09-.123.134 1.835-.311 3.519-1.472 4.764-2.88a34.243 34.243 0 0 1-3.23 1.11zm4.914-17.89v-.172-.31l-.005-.236a23.996 23.996 0 0 0-.008-.303 24.477 24.477 0 0 0-.056-1.043c-.002-.044-.006-.085-.01-.126a31.581 31.581 0 0 0-2.238-2.173c.598 1.655 1.381 3.13 2.317 4.363zm-1.278 8.134l.049-.154a43.908 43.908 0 0 0 .156-.516c.027-.096.055-.19.081-.286l.061-.222c.025-.09.049-.181.072-.272l.057-.226.064-.264c.01-.038.018-.077.027-.115a30.023 30.023 0 0 0-1.49-2.651c.078 1.684.393 3.287.923 4.706zm3.43.341a32.865 32.865 0 0 1-2.769 2.002l-.046.115a19.381 19.381 0 0 1-.208.506l-.127.293-.095.214c-.045.102-.092.204-.14.307-.031.068-.062.136-.095.204l-.16.335-.073.15c1.662-.823 2.933-2.418 3.713-4.126zm-13.924 3.434v2.83a.952.952 0 0 1-.955.948h-11.362a.952.952 0 0 1-.954-.947v-2.831c0-.523.428-.948.954-.948h3.176v-10.31l-2.089 1.74c-.205.17-.466.267-.734.267-.362 0-.695-.166-.913-.453l-1.614-2.125a1.131 1.131 0 0 1 .173-1.55l1.487-1.254a.708.708 0 0 1 .992.081.698.698 0 0 1-.082.988l-1.295 1.09 1.295 1.706 3.035-2.529a.706.706 0 0 1 .752-.098.698.698 0 0 1 .405.635l-.003 1.29v11.22c0 .387-.316.7-.704.7h-3.427v1.93h10.454v-1.93h-2.895a.702.702 0 0 1-.705-.7V47.76a.7.7 0 0 1 .705-.699c.389 0 .704.312.704.7v1.557h2.645c.527 0 .955.425.955.948zm-3.6-17.608v11.846c0 .386-.316.7-.705.7a.702.702 0 0 1-.704-.7V32.918h-2.421l-1.99 1.678a.707.707 0 0 1-.994-.083.695.695 0 0 1 .083-.984l2.064-1.739c.207-.174.469-.269.74-.269h2.783c.63 0 1.144.51 1.144 1.136z"/></defs><g><g transform="translate(-996 -29)"><use fill="#4699b9" xlink:href="#7qs5a"/></g></g></svg>