<svg xmlns="http://www.w3.org/2000/svg" xmlns:xlink="http://www.w3.org/1999/xlink" width="33" height="19" viewBox="0 0 33 19"><defs><path id="gwgja" d="M1669 611.832v7.084c0 .469-.365.853-.81.853h-1.81c-.276 1.278-1.357 2.23-2.653 2.23s-2.376-.959-2.653-2.23h-9.708c-.277 1.278-1.357 2.23-2.654 2.23-1.296 0-2.383-.952-2.653-2.23h-2.464c-.446 0-.81-.384-.81-.853v-2.97h-3.153c-.446 0-.81-.384-.81-.853 0-.468.364-.853.81-.853h3.97c.445 0 .81.385.81.853v2.977h1.6a.77.77 0 0 1 .175.021c.399-1.058 1.378-1.811 2.525-1.811 1.141 0 2.12.746 2.525 1.798.034-.008.068-.008.102-.008h7.629v-13.365h-14.556v2.97c0 .468-.365.853-.81.853h-3.97c-.446 0-.81-.385-.81-.852 0-.47.364-.854.81-.854h3.153v-2.97c0-.469.364-.853.81-.853h16.176c.446 0 .81.384.81.853v1.933h3.396c1.411 0 2.68.56 3.571 1.578.946 1.079 1.452 2.629 1.452 4.468zm-19.187 7.311c0-.64-.493-1.158-1.1-1.158-.608 0-1.1.519-1.1 1.158 0 .64.492 1.158 1.1 1.158.607 0 1.1-.518 1.1-1.158zm15.015 0c0-.64-.493-1.158-1.1-1.158-.608 0-1.101.519-1.101 1.158 0 .64.493 1.158 1.1 1.158.601 0 1.094-.518 1.1-1.158zm2.552-7.305c0-2.72-1.27-4.348-3.396-4.348h-3.396v10.58h.621c.405-1.052 1.384-1.79 2.518-1.79s2.113.746 2.518 1.79h1.135zm-16.77.363h-13.8c-.445 0-.81-.384-.81-.853 0-.468.365-.853.81-.853h13.806l-.6-.63a.886.886 0 0 1 0-1.21.783.783 0 0 1 1.147 0l1.985 2.09.007.007c.013.02.033.035.047.057.007.013.013.02.02.035.014.015.02.02.027.036.007.014.014.027.02.042.007.015.014.021.02.035l.021.043c0 .015.007.021.013.036.007.014.007.028.014.043.007.007.007.021.014.035 0 .014.006.028.006.043 0 .014.007.028.007.042 0 .021.007.036.007.05a.726.726 0 0 1 .007.206c0 .015-.007.02-.007.036 0 .022-.007.035-.007.049 0 .015-.007.028-.007.043 0 .015 0 .028-.006.042-.007.008-.007.021-.014.036-.007.015-.007.028-.014.043 0 .013-.006.021-.013.035a1.81 1.81 0 0 1-.02.043c-.007.013-.014.021-.02.035l-.02.043a.138.138 0 0 0-.028.036l-.02.035c-.014.021-.034.036-.047.058l-.007.005-2.086 2.197a.806.806 0 0 1-.574.248.795.795 0 0 1-.574-.248.885.885 0 0 1 0-1.208z"/></defs><g><g transform="translate(-1636 -603)"><use fill="#7bb3c8" xlink:href="#gwgja"/></g></g></svg>