<svg xmlns="http://www.w3.org/2000/svg" xmlns:xlink="http://www.w3.org/1999/xlink" width="10" height="9" viewBox="0 0 10 9"><defs><path id="e62ja" d="M1010.607 405.63l-.267-.237a1.05 1.05 0 0 0-1.5.098l-4.465 5.116-1.348-1.2a1.052 1.052 0 0 0-1.5.098l-.236.27a1.137 1.137 0 0 0 .077 1.57l2.47 2.338c.215.208.501.315.794.3.294-.017.567-.155.759-.385l5.33-6.4c.186-.223.279-.514.258-.809a1.123 1.123 0 0 0-.372-.76z"/></defs><g><g transform="translate(-1001 -405)"><use fill="#54b5cf" xlink:href="#e62ja"/></g></g></svg>