<svg xmlns="http://www.w3.org/2000/svg" xmlns:xlink="http://www.w3.org/1999/xlink" width="2560" height="1735" viewBox="0 0 2560 1735"><defs><path id="wzbea" d="M0 8475.998s146.048-28.198 351-28.813c125.287-.377 272.584 28.344 421.987 25.199 117.1-2.467 312.565-24.311 441.02-24.945C1390.005 8446.571 1421.614 8466 1595 8466c169.098 0 430.375-30.002 571-30.002 291.312 0 394 40 394 40v1695s-148.262-20-373.427-20c-165.395 0-262.285 20-482.384 20-123.97 0-362.13-30-489.426-30-154.234 0-302.7 30-445.412 30-160.148 0-308.011-20-430.417-20-205.256 0-338.934 20-338.934 20z"/></defs><g><g transform="translate(0 -8436)"><use fill="#e8f4f9" xlink:href="#wzbea"/></g></g></svg>