<svg xmlns="http://www.w3.org/2000/svg" xmlns:xlink="http://www.w3.org/1999/xlink" width="45" height="47" viewBox="0 0 45 47"><defs><path id="c59ma" d="M737.29 1146.708c-.5.605-1.214.953-1.961.953-.747 0-1.461-.348-1.96-.953a.623.623 0 0 1 .093-.886.647.647 0 0 1 .901.092c.259.314.602.487.966.487s.707-.173.966-.487a.647.647 0 0 1 .9-.092c.275.219.317.616.094.886zm-4.247-3.998v.721c0 .348-.287.631-.64.631a.636.636 0 0 1-.641-.63v-.722c0-.348.287-.632.64-.632.354 0 .64.284.64.632zm5.853 0v.721c0 .348-.287.631-.64.631a.636.636 0 0 1-.641-.63v-.722c0-.348.287-.632.64-.632.354 0 .64.284.64.632zm19.61 7.6c-.5.604-1.214.953-1.96.953-.747 0-1.462-.348-1.96-.954a.624.624 0 0 1 .093-.887.647.647 0 0 1 .9.093c.26.312.602.486.967.486.364 0 .707-.174.965-.486a.648.648 0 0 1 .901-.093c.275.22.317.616.094.887zm-4.247-3.999v.721a.635.635 0 0 1-.64.63.635.635 0 0 1-.64-.63v-.72c0-.348.287-.63.64-.63.354 0 .64.282.64.63zm5.853 0v.721a.635.635 0 0 1-.64.63.635.635 0 0 1-.64-.63v-.72c0-.348.287-.63.64-.63.354 0 .64.282.64.63zm7.316 14.426v3.577a.63.63 0 0 1-.64.63h-.091v5.852c0 .349-.287.63-.64.63a.635.635 0 0 1-.641-.63v-5.852h-1.646v7.565c0 .348-.287.631-.64.631a.636.636 0 0 1-.64-.63v-9.635c0-.349.286-.631.64-.631.353 0 .64.282.64.63v.81h2.378v-2.947c0-.63-.384-1.188-.978-1.422l-2.444-.961c-.857 2.626-3.345 4.43-6.18 4.43a6.55 6.55 0 0 1-4.697-1.978 5.707 5.707 0 0 1-2.711 3.401v1.029a.09.09 0 0 0 .062.085l2.389.783a2.792 2.792 0 0 1 1.939 2.648v8.9c0 .349-.287.63-.64.63a.635.635 0 0 1-.641-.63v-8.9c0-.66-.427-1.243-1.063-1.45l-.702-.232a5.052 5.052 0 0 1-4.18 2.196 5.055 5.055 0 0 1-4.178-2.196l-.702.231a1.528 1.528 0 0 0-1.063 1.451v8.9c0 .349-.287.63-.64.63a.635.635 0 0 1-.64-.63v-8.9c0-1.203.778-2.266 1.938-2.648l2.388-.783a.09.09 0 0 0 .063-.085v-1.029c-1.746-.975-2.927-2.82-2.927-4.934v-.09h-.091a2.114 2.114 0 0 1-1.697-.849 7.296 7.296 0 0 1-3.424.85c-3.355 0-6.262-2.303-7.028-5.459l-2.198.65a1.523 1.523 0 0 0-1.108 1.465v6.404h3.109v-2.316c0-.303-.09-.597-.261-.849l-1.095-1.616a.626.626 0 0 1 .178-.876.647.647 0 0 1 .888.177l1.094 1.615c.312.46.477.995.477 1.55v13.438c0 .347-.287.631-.64.631a.636.636 0 0 1-.641-.63v-9.863h-2.378v7.29c0 .35-.286.631-.64.631a.635.635 0 0 1-.64-.63v-7.29h-.091a.636.636 0 0 1-.64-.631v-7.035c0-1.242.811-2.316 2.02-2.672l5.295-1.564v-1.743c-1.636-1.196-2.744-3.055-2.906-5.172a2.077 2.077 0 0 1-1.484-1.98c0-.625.285-1.187.732-1.566v-3.473c0-3.128 2.585-5.67 5.762-5.67h5.853c1.295 0 2.398.847 2.728 2.056a3.493 3.493 0 0 1 1.57 2.893v4.194c.448.38.732.941.732 1.567 0 .93-.626 1.719-1.484 1.98a6.968 6.968 0 0 1-.37 1.762l.037.015 4.103 2.021 1.398-.69a70.94 70.94 0 0 0 .156-4.367c0-4.715 3.898-8.552 8.688-8.552 4.791 0 8.689 3.837 8.689 8.552 0 4.94.718 9.942.725 9.991a.627.627 0 0 1-.228.578c-.073.059-1.714 1.356-5.18 2.132.026.013.051.026.079.038l5.016 1.976a2.774 2.774 0 0 1 1.782 2.59zm-18.404-13.589l1.382-.681a.654.654 0 0 1 .623.027.632.632 0 0 1 .304.538v2.817a7.11 7.11 0 0 1 1.753 2.66 5.966 5.966 0 0 0 3.46 1.092 5.94 5.94 0 0 0 3.733-1.296 5.863 5.863 0 0 0 2.063-3.253c.098-.424.148-.861.148-1.3 0-2.417-1.412-2.806-4.118-3.333-1.4-.274-2.955-.577-4.344-1.387-.336.836-1.16 1.953-3.18 2.45a.641.641 0 0 1-.776-.459.627.627 0 0 1 .465-.763c2.414-.595 2.442-2.253 2.442-2.27a.63.63 0 0 1 .363-.569.649.649 0 0 1 .677.077c1.326 1.045 2.992 1.37 4.603 1.685 2.531.494 5.148 1.006 5.148 4.568 0 .533-.06 1.064-.179 1.581a7.123 7.123 0 0 1-3.479 4.604v1.002c2.484-.535 3.953-1.35 4.527-1.718-.168-1.278-.686-5.556-.686-9.789 0-4.021-3.323-7.292-7.407-7.292-4.085 0-7.408 3.27-7.408 7.292 0 1.155-.038 2.404-.114 3.718zm-1.29 2.044l2.318 1.14v-2.282zm-5.18 1.14l2.317-1.14-2.317-1.142zm-3.414 3.692a4.312 4.312 0 0 1-3.811 2.28c-2.084 0-3.826-1.468-4.216-3.41l-1.582.468c.603 2.632 3.012 4.561 5.798 4.561 1.07 0 2.105-.279 3.017-.81 0-.602.274-1.172.732-1.562v-.6c0-.31.021-.62.062-.927zm-6.829-1.944c.005 1.633 1.357 2.962 3.018 2.962 1.664 0 3.018-1.332 3.018-2.97v-1.462a7.283 7.283 0 0 1-3.018.653 7.283 7.283 0 0 1-3.018-.653v1.47zm8.962-7.93c0-.347.287-.63.64-.63a.817.817 0 0 0 .823-.81c0-.448-.369-.81-.823-.81h-.731a.636.636 0 0 1-.64-.63c0-.35.286-.63.64-.63h.731c.031 0 .061.001.092.003v-3.694c0-.801-.45-1.549-1.172-1.95a.629.629 0 0 1-.318-.452 1.534 1.534 0 0 0-1.528-1.289h-5.853c-2.47 0-4.481 1.98-4.481 4.412v2.973c.03-.001.06-.003.091-.003h1.002l.586-1.73a.638.638 0 0 1 .607-.43c.057 0 5.737-.019 8.493-1.374a.644.644 0 0 1 .86.282.626.626 0 0 1-.287.845c-2.57 1.263-7.13 1.468-8.602 1.5l-.588 1.736a.64.64 0 0 1-.607.432h-1.464a.817.817 0 0 0-.823.809c0 .447.37.81.823.81.354 0 .64.283.64.63 0 3.228 2.667 5.851 5.945 5.851 3.278 0 5.944-2.623 5.944-5.85zm-1.65 8.098a7.146 7.146 0 0 1 1.65-2.401v-1.662a7.203 7.203 0 0 1-1.646 1.676v2.21c0 .06-.002.118-.004.177zm9.173 14.269a1.35 1.35 0 0 1-.938-1.281v-.502a5.837 5.837 0 0 1-3.11 0v.502a1.35 1.35 0 0 1-.938 1.28l-.408.135a3.774 3.774 0 0 0 2.9 1.353 3.769 3.769 0 0 0 2.902-1.353zm3.36-8.594a.817.817 0 0 0 .823-.81.799.799 0 0 0-.414-.696.627.627 0 0 1-.318-.545v-.92c0-1.171-.36-2.306-1.014-3.264a.662.662 0 0 1-.204.201.656.656 0 0 1-.623.026l-4.103-2.018-4.103 2.018a.657.657 0 0 1-.623-.025.65.65 0 0 1-.204-.202 5.796 5.796 0 0 0-1.014 3.264v.074c1.688-.066 6.33-.398 9.284-2.061a.645.645 0 0 1 .874.235.625.625 0 0 1-.238.86c-3.373 1.895-8.504 2.19-10.087 2.234a.607.607 0 0 1-.151.123.8.8 0 0 0-.414.697c0 .445.37.809.823.809h.732c.353 0 .64.284.64.63v.72c0 2.433 2.01 4.412 4.481 4.412 2.47 0 4.481-1.98 4.481-4.412v-.72c0-.346.287-.63.64-.63zm9.379-.039l-1.381-.543a2.064 2.064 0 0 1-1.322-1.923v-.924c-.733.241-1.506.37-2.286.37a7.267 7.267 0 0 1-3.06-.667c.028.25.042.502.042.755v.6c.458.39.732.96.732 1.562 0 1.136-.936 2.06-2.09 2.069a5.24 5.24 0 0 0 4.376 2.34c2.306 0 4.327-1.485 4.989-3.639zm-13.271 3.226c-.5.606-1.214.952-1.96.952-.748 0-1.462-.346-1.962-.952a.623.623 0 0 1 .094-.886.648.648 0 0 1 .901.093c.259.313.602.487.966.487s.707-.174.966-.487a.648.648 0 0 1 .9-.093c.275.22.317.617.095.886zm-4.144-3.905c.354 0 .64.284.64.631 0 .348-.286.63-.64.63a.635.635 0 0 1-.64-.63c0-.347.286-.63.64-.63zm4.354 0c.354 0 .64.284.64.631 0 .348-.286.63-.64.63a.635.635 0 0 1-.64-.63c0-.347.287-.63.64-.63z"/></defs><g><g transform="translate(-723 -1132)"><use fill="#4699b9" xlink:href="#c59ma"/></g></g></svg>