<svg xmlns="http://www.w3.org/2000/svg" width="48" height="48" viewBox="0 0 48 48">
  <metadata><?xpacket begin="﻿" id="W5M0MpCehiHzreSzNTczkc9d"?>
<x:xmpmeta xmlns:x="adobe:ns:meta/" x:xmptk="Adobe XMP Core 5.6-c142 79.160924, 2017/07/13-01:06:39        ">
   <rdf:RDF xmlns:rdf="http://www.w3.org/1999/02/22-rdf-syntax-ns#">
      <rdf:Description rdf:about=""/>
   </rdf:RDF>
</x:xmpmeta>
                                                                                                    
                                                                                                    
                                                                                                    
                                                                                                    
                                                                                                    
                                                                                                    
                                                                                                    
                                                                                                    
                                                                                                    
                                                                                                    
                                                                                                    
                                                                                                    
                                                                                                    
                                                                                                    
                                                                                                    
                                                                                                    
                                                                                                    
                                                                                                    
                                                                                                    
                                                                                                    
                           
<?xpacket end="w"?></metadata>
<defs>
    <style>
      .cls-1 {
        fill: #4699b9;
        fill-rule: evenodd;
      }
    </style>
  </defs>
  <path id="Forma_1" data-name="Forma 1" class="cls-1" d="M736,245.137a34.446,34.446,0,0,1-20.963-7.155,7.787,7.787,0,0,1-1.392-10.943,7.851,7.851,0,0,1,10.975-1.386,18.611,18.611,0,0,0,22.761,0,7.807,7.807,0,1,1,9.581,12.329A34.448,34.448,0,0,1,736,245.137Zm-16.166-19.665a6.371,6.371,0,0,0-5.04,2.456,6.334,6.334,0,0,0,1.133,8.906,32.826,32.826,0,0,0,40.142,0,6.354,6.354,0,0,0-7.8-10.034,20.081,20.081,0,0,1-24.545,0A6.345,6.345,0,0,0,719.832,225.472ZM736,272.007a0.727,0.727,0,0,1-.728-0.725v-26.2a0.728,0.728,0,0,1,1.455,0v26.2A0.725,0.725,0,0,1,736,272.007Zm0-18.69a5.307,5.307,0,0,1-5.439-5.153v-3.377a0.727,0.727,0,0,1,1.454,0v3.377a4,4,0,0,0,7.97,0v-3.377a0.727,0.727,0,0,1,1.454,0v3.377A5.308,5.308,0,0,1,736,253.317Zm-6.449-11.992a0.626,0.626,0,0,1-.121-0.011c-5.21-.862-10.711-4.672-10.943-4.834a0.725,0.725,0,1,1,.835-1.186c0.054,0.036,5.466,3.782,10.346,4.591A0.725,0.725,0,0,1,729.549,241.325Z" transform="translate(-712 -224)"/>
</svg>
