<svg xmlns="http://www.w3.org/2000/svg" xmlns:xlink="http://www.w3.org/1999/xlink" width="16" height="16" viewBox="0 0 37 37"><defs><path id="kjlya" d="M1421.97 8161.5l9.154-9.154c.58-.58.872-1.287.872-2.118 0-.83-.291-1.536-.872-2.117l-4.235-4.235a2.883 2.883 0 0 0-2.117-.872c-.83 0-1.536.29-2.117.872l-9.155 9.155-9.154-9.155a2.882 2.882 0 0 0-2.118-.872c-.83 0-1.536.29-2.117.872l-4.235 4.235a2.883 2.883 0 0 0-.872 2.117c0 .83.291 1.537.872 2.118l9.155 9.154-9.155 9.154a2.884 2.884 0 0 0-.872 2.117c0 .83.291 1.536.872 2.118l4.235 4.234a2.88 2.88 0 0 0 2.117.873c.83 0 1.536-.29 2.118-.873l9.154-9.153 9.155 9.153a2.88 2.88 0 0 0 2.118.873c.83 0 1.535-.29 2.117-.873l4.234-4.234a2.885 2.885 0 0 0 .872-2.118c0-.83-.291-1.535-.872-2.117z"/></defs><g><g transform="translate(-1395 -8143)"><use xlink:href="#kjlya"/><use fill="#f3520b" xlink:href="#kjlya"/></g></g></svg>