<svg xmlns="http://www.w3.org/2000/svg" width="48" height="48" viewBox="0 0 48 48">
  <metadata><?xpacket begin="﻿" id="W5M0MpCehiHzreSzNTczkc9d"?>
<x:xmpmeta xmlns:x="adobe:ns:meta/" x:xmptk="Adobe XMP Core 5.6-c142 79.160924, 2017/07/13-01:06:39        ">
   <rdf:RDF xmlns:rdf="http://www.w3.org/1999/02/22-rdf-syntax-ns#">
      <rdf:Description rdf:about=""/>
   </rdf:RDF>
</x:xmpmeta>
                                                                                             
                                                                                                                                                                                                      
                                                                                                      
                           
<?xpacket end="w"?></metadata>
<defs>
    <style>
      .cls-1 {
        fill: #4699b9;
        fill-rule: evenodd;
      }
    </style>
  </defs>
  <path id="Forma_1" data-name="Forma 1" class="cls-1" d="M350.28,252.823l1.433-2.866,0.253-.507a10.449,10.449,0,0,0,0-9.3l-1.768-3.538V224H319.8v12.611l-1.769,3.539a10.449,10.449,0,0,0,0,9.3l0.254,0.507,1.432,2.866-1.632,3.754a13.639,13.639,0,0,0,0,10.845l1.99,4.577h29.85l1.989-4.578a13.639,13.639,0,0,0,0-10.845ZM319.492,248.8l-0.033-.065a8.841,8.841,0,0,1,0-7.87l1.939-3.876V225.6h27.2v11.389l1.937,3.876a8.841,8.841,0,0,1,0,7.87l-0.032.065H319.492ZM334.2,270.4H321.123l-1.572-3.615a12.036,12.036,0,0,1,0-9.571l1.572-3.614h0.067A13.008,13.008,0,0,1,334.2,266.61v3.79ZM321.19,252h-0.1l-0.8-1.6H349.7l-0.8,1.6h-0.1A14.626,14.626,0,0,0,335,261.841,14.631,14.631,0,0,0,321.19,252Zm29.255,14.786-1.572,3.614H335.8v-3.79a13.012,13.012,0,0,1,13.008-13.01h0.068l1.571,3.615A12.044,12.044,0,0,1,350.445,266.786ZM334.2,240.8h1.6v1.6h-1.6v-1.6Zm-18.4-2.4h-2.069l1.035-1.034a0.8,0.8,0,0,0-1.132-1.132l-2.4,2.4a0.8,0.8,0,0,0,0,1.132l2.4,2.4a0.8,0.8,0,0,0,1.132-1.132L313.729,240H315.8A0.8,0.8,0,1,0,315.8,238.4Zm42.965,0.234-2.4-2.4a0.8,0.8,0,1,0-1.131,1.132l1.035,1.034H354.2a0.8,0.8,0,0,0,0,1.6h2.069l-1.035,1.034a0.8,0.8,0,0,0,1.131,1.132l2.4-2.4A0.8,0.8,0,0,0,358.763,238.634Z" transform="translate(-311 -224)"/>
</svg>
