<svg xmlns="http://www.w3.org/2000/svg" xmlns:xlink="http://www.w3.org/1999/xlink" width="25" height="39" viewBox="0 0 25 39"><defs><path id="5zd3a" d="M754.51 1284.723a2.659 2.659 0 0 1-1.982.773 4.255 4.255 0 0 1-1.703-.479c.177.4.223.836.143 1.263-.3 1.654-1.459 2.596-2.48 3.43a12.71 12.71 0 0 0-.924.792c-2.897 2.814-4.805 5.276-6.187 7.975a.828.828 0 0 1-1.07.39l-5.93-2.605-.044-.023a.823.823 0 0 1-.424-.947c.269-1.014.63-2.027.987-3.015.703-1.935 1.421-3.936 1.314-5.883a17.133 17.133 0 0 0-.15-1.321c-.171-1.26-.363-2.678.168-3.987.36-.884.86-1.844 2.284-2.09.69-.115 1.253.071 1.703.226.298.105.548.196.782.176.166-.019.333-.036.496-.066-1.38-.49-2.438-1.34-2.88-2.344-.37-.854-.32-1.784.147-2.715 1.03-2.067 2.346-3.425 4.55-4.704 2.094-1.212 3.476-2.48 4.238-3.86.2-.357.447-.764.708-1.202.763-1.257 1.71-2.833 1.845-3.876a.833.833 0 0 1 1.2-.641l.007.003 6.79 3.569c.293.15.467.464.436.794-.072.975-.603 1.995-1.12 2.985-.371.71-.75 1.432-.892 2.034l-.184.758c-.324 1.323-.671 2.69-.643 3.921.017.908.124 1.769.246 2.673.134 1.024.271 2.096.26 3.223-.007 1.101-.383 3.522-1.69 4.773zm-5.177 1.291c.088-.48-.502-.922-1.346-1.485-.432-.297-.843-.563-1.153-.9-.405-.44-.657-.925-.885-1.351a8.434 8.434 0 0 0-.365-.647c-.134-.207-.412-.425-.772-.61a3.757 3.757 0 0 0-.486-.21c-.626-.227-1.2-.1-1.94.056a9.44 9.44 0 0 1-1.293.208c-.566.038-1.027-.113-1.428-.253-.387-.132-.626-.208-.89-.165-.507.087-.706.295-1.02 1.07-.367.899-.215 1.978-.06 3.124.068.485.139.98.162 1.46.122 2.282-.654 4.45-1.41 6.543-.273.75-.53 1.472-.747 2.185l4.564 2.008c1.433-2.6 3.363-5.012 6.147-7.716.333-.326.685-.613 1.033-.895.916-.738 1.701-1.385 1.889-2.422zm5.208-6.099c.017-1.012-.11-1.976-.242-2.988-.117-.913-.245-1.858-.262-2.86-.025-1.454.339-2.926.698-4.352l.183-.739c.196-.8.617-1.623 1.031-2.413.33-.627.664-1.279.834-1.83l-5.323-2.807c-.4 1.124-1.122 2.318-1.784 3.412-.25.415-.48.812-.673 1.153-.914 1.657-2.502 3.13-4.865 4.504-1.917 1.116-3.012 2.242-3.897 4.009-.24.485-.278.906-.106 1.294.284.66 1.215 1.286 2.347 1.592.357.1.686.165 1 .223.686.127 1.394.264 2.217.686a9.445 9.445 0 0 1 2.638 1.93l.394.408c1.011 1.052 2.54 2.628 3.883 2.689a.985.985 0 0 0 .762-.311c.79-.748 1.158-2.535 1.165-3.6z"/></defs><g><g transform="translate(-734 -1260)"><use fill="#4699b9" xlink:href="#5zd3a"/></g></g></svg>