<svg xmlns="http://www.w3.org/2000/svg" xmlns:xlink="http://www.w3.org/1999/xlink" width="40" height="40" viewBox="0 0 40 40"><defs><path id="qj67a" d="M1352 35.743v.012a2.838 2.838 0 0 1-2.836 2.835h-.209c.008.058.012.116.012.175v.011a2.84 2.84 0 0 1-2.836 2.836h-.209c.007.057.011.113.011.171v.012a2.84 2.84 0 0 1-2.836 2.837h-7.002a.587.587 0 0 1 0-1.173h7.002c.918 0 1.664-.746 1.664-1.664v-.012a.172.172 0 0 0-.15-.17h-1.69c-.015 0-.029 0-.043-.002h-.052a.586.586 0 0 1 0-1.172h1.763c.021 0 .042 0 .063.002h1.479c.917 0 1.664-.747 1.664-1.665v-.011a.173.173 0 0 0-.173-.173h-10.769a.586.586 0 1 1 0-1.17h10.573c.014-.003.03-.003.044-.003h1.694c.917 0 1.664-.746 1.664-1.664v-.011a.172.172 0 0 0-.172-.173h-16.02c.09.298.129.615.113.937l-.19 3.93h6.03a.587.587 0 0 1 0 1.173h-6.088l-.462 9.512h2.89c.932 0 1.69-.761 1.69-1.698 0-.937-.758-1.698-1.69-1.698a.586.586 0 1 1 0-1.17 2.868 2.868 0 0 1 2.861 2.868 2.868 2.868 0 0 1-2.86 2.87h-2.948l-.165 3.396h1.671a1.695 1.695 0 0 0 1.663-2 .586.586 0 0 1 1.153-.207 2.87 2.87 0 0 1-2.816 3.38h-1.728l-.38 7.817a1.382 1.382 0 0 1-2.76 0l-.38-7.817h-.212c-.931 0-1.69.761-1.69 1.697a1.7 1.7 0 0 0 1.128 1.602.587.587 0 0 1-.392 1.104 2.874 2.874 0 0 1-1.907-2.706 2.869 2.869 0 0 1 2.861-2.87h.154l-.164-3.397h-1.506c-.932 0-1.69.763-1.69 1.699 0 .478.203.936.555 1.258a.587.587 0 0 1-.79.866 2.88 2.88 0 0 1-.937-2.124 2.868 2.868 0 0 1 2.862-2.87h1.449l-.463-9.512h-5.612a.586.586 0 1 1 0-1.172h5.556l-.192-3.931a2.777 2.777 0 0 1 .114-.937h-16.02a.172.172 0 0 0-.172.173v.012c0 .917.746 1.663 1.664 1.663h2.3l.045.002h9.814a.585.585 0 1 1 0 1.171h-10.617a.173.173 0 0 0-.173.173v.011c0 .919.747 1.665 1.664 1.665h1.479l.063-.002h2.427a.587.587 0 0 1 0 1.172h-1.627l-.042.001h-.78a.172.172 0 0 0-.15.171v.013c0 .917.746 1.663 1.663 1.663h6.889a.586.586 0 0 1 0 1.173h-6.889a2.84 2.84 0 0 1-2.835-2.836v-.013c0-.058.003-.114.01-.17h-.208a2.838 2.838 0 0 1-2.836-2.837v-.011c0-.059.004-.117.012-.174h-.21a2.84 2.84 0 0 1-2.835-2.836v-.011c0-.742.603-1.345 1.344-1.345h16.684l.046.002a2.72 2.72 0 0 1 1.926-.789c.728 0 1.407.278 1.924.787h16.732c.74 0 1.344.603 1.344 1.345zm-19.413 21.12h-1.174l.377 7.76a.21.21 0 0 0 .42 0zm.222-4.569h-1.618l.165 3.397h1.288zm.77-15.843a1.578 1.578 0 0 0-.437-1.176 1.56 1.56 0 0 0-1.142-.49c-.435 0-.84.173-1.142.49a1.578 1.578 0 0 0-.437 1.176l.713 14.672h1.732zm-4.883-7.138A3.313 3.313 0 0 1 1332 26a3.312 3.312 0 0 1 3.303 3.314 3.312 3.312 0 0 1-3.303 3.314 3.313 3.313 0 0 1-3.304-3.314zm1.172 0a2.14 2.14 0 0 0 2.132 2.142 2.14 2.14 0 0 0 2.131-2.142 2.14 2.14 0 0 0-2.131-2.142 2.14 2.14 0 0 0-2.132 2.142zm6.837 28.399a2.874 2.874 0 0 1-1.779 3.555.585.585 0 0 1-.392-1.105 1.7 1.7 0 0 0 1.051-2.105.585.585 0 1 1 1.12-.345zm-10.81-6.245a.582.582 0 0 1-.417.174.58.58 0 0 1-.411-.168 2.854 2.854 0 0 1-.858-2.048 2.868 2.868 0 0 1 2.861-2.869.585.585 0 1 1 0 1.17c-.93 0-1.689.762-1.689 1.7 0 .46.18.89.508 1.212.23.227.234.599.007.829z"/></defs><g><g transform="translate(-1312 -26)"><use fill="#4699b9" xlink:href="#qj67a"/></g></g></svg>