<svg xmlns="http://www.w3.org/2000/svg" xmlns:xlink="http://www.w3.org/1999/xlink" width="20" height="19" viewBox="0 0 20 19"><defs><path id="fs5ea" d="M1121.494 320.338l8.096 8.162a1.258 1.258 0 0 0 1.79 0 1.283 1.283 0 0 0 0-1.803l-5.937-5.985h14.292a1.27 1.27 0 0 0 1.265-1.276 1.27 1.27 0 0 0-1.265-1.275h-14.292l5.936-5.984c.494-.5.494-1.306 0-1.806a1.257 1.257 0 0 0-1.789 0l-8.096 8.165a1.281 1.281 0 0 0 0 1.802z"/></defs><g><g transform="translate(-1121 -310)"><use fill="#ccc" xlink:href="#fs5ea"/></g></g></svg>