<svg xmlns="http://www.w3.org/2000/svg" xmlns:xlink="http://www.w3.org/1999/xlink" width="18" height="20" viewBox="0 0 18 20"><defs><path id="mwdha" d="M1662.455 466.118c.38.469.545.989.48 1.503-.065.514-.351.982-.83 1.363-.208.163-.42.319-.626.467-.302.223-.59.43-.846.663-.005.007-.014.01-.02.018-.739.61-1.614.856-2.606.737-.085-.008-.18-.026-.269-.04-1.46-.266-2.708-.957-3.638-1.53a20.007 20.007 0 0 1-6.075-5.898c-1.32-1.984-2.145-3.787-2.61-5.688-.19-.775-.415-1.946-.158-3.147a3.067 3.067 0 0 1 1.176-1.825l1.639-1.25c.005-.002.005-.002.01-.008.48-.345 1.012-.496 1.535-.434.524.06.994.332 1.36.781.247.282.484.581.709.869.111.148.232.298.348.442l1.028 1.276c.79.975.647 2.108-.365 2.872-.135.1-.27.208-.405.31-.357.273-.724.558-1.115.83.19.592.48 1.187.934 1.905.94 1.447 1.964 2.602 3.135 3.539.115.085.252.176.397.266.1.07.205.135.31.209l1.52-1.149c.487-.368 1.021-.528 1.549-.467.532.065 1.005.348 1.368.817zm-.923.69l-2.074-2.571-.007-.01c-.115-.157-.314-.344-.58-.377-.27-.03-.523.108-.687.236l-1.647 1.244a.938.938 0 0 1-.688.21.952.952 0 0 1-.412-.153c-.016-.012-.032-.026-.048-.036a5.014 5.014 0 0 0-.396-.27c-.161-.105-.33-.214-.493-.341-1.27-1.01-2.379-2.257-3.384-3.811l-.003-.006c-.55-.877-.894-1.6-1.108-2.354l-.008-.039c-.048-.241-.072-.602.342-.915a22.256 22.256 0 0 0 1.23-.902c.139-.101.274-.207.414-.315.51-.386.562-.793.163-1.287l-1.027-1.273c-.12-.155-.24-.304-.357-.452a20.896 20.896 0 0 0-.677-.836l-.012-.015c-.12-.152-.319-.332-.59-.368-.218-.025-.454.057-.689.222l-1.642 1.242c-.4.304-.644.685-.748 1.164-.161.753-.118 1.575.15 2.66.433 1.77 1.211 3.464 2.457 5.347a18.955 18.955 0 0 0 5.723 5.552c.836.518 1.959 1.141 3.223 1.37.063.009.132.019.197.025.669.082 1.206-.068 1.696-.465.305-.27.622-.51.933-.732.207-.155.399-.29.588-.443-.005.002-.004-.001 0 0 .493-.39.549-.828.16-1.302z"/></defs><g><g transform="translate(-1645 -451)"><use fill="#f4be69" xlink:href="#mwdha"/></g></g></svg>