<svg xmlns="http://www.w3.org/2000/svg" xmlns:xlink="http://www.w3.org/1999/xlink" width="44" height="40" viewBox="0 0 44 40"><defs><path id="p4uoa" d="M1652.6 41.978a.73.73 0 0 1 .733-.726h9.534a.73.73 0 0 1 .733.726.73.73 0 0 1-.733.726h-9.534a.73.73 0 0 1-.733-.726zm20.533 4.359c0 .4-.328.725-.733.725h-19.067a.73.73 0 0 1-.733-.725.73.73 0 0 1 .733-.728h19.067a.73.73 0 0 1 .733.728zm0 4.356a.73.73 0 0 1-.733.728h-19.067a.73.73 0 0 1-.733-.728c0-.4.328-.726.733-.726h19.067a.73.73 0 0 1 .733.726zM1690 30.356v15.356c0 2.376-1.95 4.308-4.349 4.308h-.785v7.265a.728.728 0 0 1-.733.725.738.738 0 0 1-.542-.238l-3.858-4.203v.082c0 2.375-1.95 4.307-4.348 4.307l-12.193.05-7.116 7.754a.74.74 0 0 1-.807.189.726.726 0 0 1-.47-.677v-7.265h-4.45c-2.398 0-4.35-1.931-4.35-4.307V38.346c0-2.374 1.952-4.307 4.35-4.307l5.917-.012v-3.722c0-2.374 1.951-4.308 4.35-4.308l25.037.051c2.397 0 4.347 1.933 4.347 4.308zm-11.733 7.939c0-1.575-1.293-2.855-2.882-2.855l-18.384.037H1657l-6.65.015c-1.59 0-2.884 1.28-2.884 2.853v15.357c0 1.573 1.293 2.854 2.882 2.854h5.185a.73.73 0 0 1 .733.726v6.112l6.058-6.6a.735.735 0 0 1 .54-.238l12.518-.051c1.592 0 2.885-1.28 2.885-2.855zm10.267 7.417V30.355c0-1.574-1.293-2.853-2.882-2.853h-.002l-25.036-.052c-1.588 0-2.88 1.281-2.88 2.855v3.719l17.649-.036c2.4 0 4.35 1.932 4.35 4.308V51.41l3.667 3.994v-6.111c0-.401.328-.727.733-.727h1.518c1.59 0 2.882-1.28 2.882-2.854z"/></defs><g><g transform="translate(-1646 -26)"><use fill="#4699b9" xlink:href="#p4uoa"/></g></g></svg>