<svg xmlns="http://www.w3.org/2000/svg" xmlns:xlink="http://www.w3.org/1999/xlink" width="47" height="37" viewBox="0 0 47 37"><defs><path id="v7tla" d="M1739.151 8149.107l-4.124-4.236a2.764 2.764 0 0 0-2.062-.871c-.808 0-1.496.288-2.062.871l-19.891 20.463-8.915-9.188a2.772 2.772 0 0 0-2.062-.873c-.809 0-1.496.292-2.062.873l-4.124 4.235c-.566.582-.849 1.289-.849 2.118 0 .83.283 1.537.85 2.119l10.976 11.274 4.124 4.235a2.767 2.767 0 0 0 2.061.873c.809 0 1.496-.29 2.062-.873l4.125-4.235 21.953-22.549c.566-.581.849-1.288.849-2.118 0-.83-.283-1.538-.849-2.118z"/></defs><g><g transform="translate(-1693 -8144)"><use xlink:href="#v7tla"/><use fill="#40a486" xlink:href="#v7tla"/></g></g></svg>