<svg xmlns="http://www.w3.org/2000/svg" width="48" height="48" viewBox="0 0 48 48">
  <metadata><?xpacket begin="﻿" id="W5M0MpCehiHzreSzNTczkc9d"?>
<x:xmpmeta xmlns:x="adobe:ns:meta/" x:xmptk="Adobe XMP Core 5.6-c142 79.160924, 2017/07/13-01:06:39        ">
   <rdf:RDF xmlns:rdf="http://www.w3.org/1999/02/22-rdf-syntax-ns#">
      <rdf:Description rdf:about=""/>
   </rdf:RDF>
</x:xmpmeta>
                                                                                                    
                                                                                                    
                                                                                                    
                                                                                                    
                                                                                                    
                                                                                                    
                                                                                                    
                                                                                                    
                                                                                                    
                                                                                                    
                                                                                                    
                                                                                                    
                                                                                                    
                                                                                                    
                                                                                                    
                                                                                                    
                                                                                                    
                                                                                                    
                                                                                                    
                                                                                                    
                           
<?xpacket end="w"?></metadata>
<defs>
    <style>
      .cls-1 {
        fill: #4699b9;
        fill-rule: evenodd;
      }
    </style>
  </defs>
  <path id="Forma_1" data-name="Forma 1" class="cls-1" d="M1156.84,236.031a0.884,0.884,0,0,0-1.2-.316l-4.28,2.459a0.872,0.872,0,0,0,.88,1.506l4.28-2.459A0.87,0.87,0,0,0,1156.84,236.031Zm-0.32,22.753-4.28-2.459a0.872,0.872,0,0,0-.88,1.506l4.28,2.459a0.884,0.884,0,0,0,1.2-.315A0.87,0.87,0,0,0,1156.52,258.784Zm-20.45,6.428a0.884,0.884,0,0,0-.95.809v5.042a0.882,0.882,0,0,0,1.76.13V266.15A0.876,0.876,0,0,0,1136.07,265.212Zm-15.43-27.038-4.28-2.459a0.884,0.884,0,0,0-1.2.316,0.87,0.87,0,0,0,.32,1.19l4.28,2.459A0.872,0.872,0,0,0,1120.64,238.174ZM1136.07,224a0.886,0.886,0,0,0-.95.809v5.043a0.889,0.889,0,0,0,.88.871,0.876,0.876,0,0,0,.88-0.876v-4.908A0.876,0.876,0,0,0,1136.07,224Zm-8.44,7.844-2.47-4.254a0.873,0.873,0,0,0-1.51.876l2.47,4.254A0.873,0.873,0,0,0,1127.63,231.842Zm8.5,8.387a0.94,0.94,0,0,0-.13,0,7.793,7.793,0,0,0-7.81,7.771,0.875,0.875,0,1,0,1.75,0,6.041,6.041,0,0,1,6.05-6.024H1136A0.876,0.876,0,1,0,1136.13,240.229Zm23.87,7.7a0.878,0.878,0,0,0-.81-0.809h-4.94a0.876,0.876,0,1,0-.13,1.747,0.937,0.937,0,0,0,.13,0h4.94A0.883,0.883,0,0,0,1160,247.933Zm-42.12-.8a0.937,0.937,0,0,0-.13,0h-4.94a0.876,0.876,0,0,0,0,1.747h4.94A0.876,0.876,0,1,0,1117.88,247.129ZM1136,235.148A12.853,12.853,0,1,0,1148.92,248,12.887,12.887,0,0,0,1136,235.148Zm7.89,20.72a11.2,11.2,0,0,1-15.78,0,11.083,11.083,0,0,1,0-15.721v0.015a11.194,11.194,0,0,1,15.78,0A11.065,11.065,0,0,1,1143.89,255.868Zm4.46,11.672v0l-2.47-4.253a0.882,0.882,0,0,0-1.2-.315,0.87,0.87,0,0,0-.32,1.19l2.48,4.254A0.872,0.872,0,0,0,1148.35,267.54Zm-0.29-40.267a0.882,0.882,0,0,0-1.2.315l-2.47,4.254a0.878,0.878,0,0,0,.31,1.192,0.016,0.016,0,0,1,.01,0h0a0.87,0.87,0,0,0,1.19-.314c0.01,0,.01,0,0.01,0l2.47-4.254A0.871,0.871,0,0,0,1148.06,227.273Zm-20.74,35.7a0.882,0.882,0,0,0-1.2.315l-2.47,4.253a0.873,0.873,0,0,0,1.51.876l2.48-4.254A0.869,0.869,0,0,0,1127.32,262.968Zm-6.37-6.333a0.871,0.871,0,0,0-1.19-.315l-4.28,2.459a0.871,0.871,0,0,0-.32,1.191,0.882,0.882,0,0,0,1.2.315l4.28-2.459A0.868,0.868,0,0,0,1120.95,256.635Z" transform="translate(-1112 -224)"/>
</svg>
