<svg xmlns="http://www.w3.org/2000/svg" xmlns:xlink="http://www.w3.org/1999/xlink" width="18" height="24" viewBox="0 0 18 24"><defs><path id="ja09a" d="M1661 391.282v4.167c0 .3-.238.541-.532.541h-16.936a.536.536 0 0 1-.532-.541v-4.167c0-2.006 1.572-3.64 3.53-3.71.018-.003 2.74.083 3.145-2.884-1.321-.935-2.29-2.648-2.554-4.713a.551.551 0 0 1-.125-.187 6.309 6.309 0 0 1-.27-.83c-.339-1.346-.235-2.74.292-3.923.543-1.219 1.467-2.075 2.603-2.406a3.58 3.58 0 0 1 .738-.138 4.606 4.606 0 0 1 2.088-.5c2.766 0 5.016 2.463 5.016 5.49 0 .79-.15 1.55-.444 2.263a.524.524 0 0 1-.134.19c-.163 1.325-.62 2.548-1.33 3.526-.366.5-.78.915-1.23 1.234.405 2.959 3.127 2.875 3.145 2.879 1.958.07 3.53 1.703 3.53 3.71zm-13.256-12.65a5.02 5.02 0 0 0 1.205-2.189.649.649 0 1 1 1.237-.083c.068.173.181.32.328.43a.95.95 0 0 0 .593.201h3.628a2.31 2.31 0 0 1 1.658.706c.004-.071.006-.143.006-.215 0-2.434-1.773-4.414-3.952-4.414-.587 0-1.158.149-1.697.436a.529.529 0 0 1-.223.062c-.21.008-.416.041-.61.098-1.742.514-2.708 2.73-2.173 4.967zm4.257 5.745c2.143 0 3.887-2.483 3.887-5.532v-.011a1.264 1.264 0 0 0-1.153-.761h-3.628a2.025 2.025 0 0 1-1.395-.553 6.116 6.116 0 0 1-1.549 2.203c.144 1.27.598 2.43 1.29 3.291.71.878 1.615 1.363 2.548 1.363zm-2.872 3.392l2.797 4.044a.091.091 0 0 0 .075.039.091.091 0 0 0 .075-.04l2.796-4.043a4.229 4.229 0 0 1-1.548-2.547 3.845 3.845 0 0 1-1.323.236c-.458 0-.902-.084-1.324-.238a4.24 4.24 0 0 1-1.548 2.549zm10.806 7.139v-3.627c0-1.448-1.162-2.63-2.59-2.63-.02 0-.78 0-1.552-.33l-2.845 4.113a1.153 1.153 0 0 1-1.894 0l-2.846-4.117c-.677.314-1.534.334-1.553.334-1.428 0-2.59 1.182-2.59 2.63v3.627z"/></defs><g><g transform="translate(-1643 -372)"><use fill="#f4be69" xlink:href="#ja09a"/></g></g></svg>